<svg viewBox="0 0 24 24" fill="none" xmlns="http://www.w3.org/2000/svg">
  <defs>
    <linearGradient id="seed-gradient" x1="0%" y1="0%" x2="100%" y2="100%">
      <stop offset="0%" style="stop-color:#00D4AA"/>
      <stop offset="100%" style="stop-color:#00B4D8"/>
    </linearGradient>
  </defs>
  <path d="M12 2C6.48 2 2 6.48 2 12s4.48 10 10 10 10-4.48 10-10S17.52 2 12 2z" fill="url(#seed-gradient)" opacity="0.1"/>
  <path d="M12 6C12 6 8 9 8 13C8 15.5 9.5 18 12 18C14.5 18 16 15.5 16 13C16 9 12 6 12 6Z" fill="url(#seed-gradient)"/>
  <path d="M12 6V4" stroke="url(#seed-gradient)" stroke-width="1.5" stroke-linecap="round"/>
  <path d="M9 8L7.5 6.5" stroke="url(#seed-gradient)" stroke-width="1.5" stroke-linecap="round"/>
  <path d="M15 8L16.5 6.5" stroke="url(#seed-gradient)" stroke-width="1.5" stroke-linecap="round"/>
</svg>
