<?xml version="1.0" encoding="UTF-8"?>
<svg id="_图层_2" data-name="图层 2" xmlns="http://www.w3.org/2000/svg" viewBox="0 0 172 179.64">
  <g id="_图层_1-2" data-name="图层 1">
    <path d="M171.39,58.09l-15.22-26.36c-1.25-2.17-4.02-2.91-6.19-1.66l-43.42,25.07c-.37.21-.83-.05-.83-.48V4.53c0-2.5-2.03-4.53-4.53-4.53h-30.44c-2.5,0-4.53,2.03-4.53,4.53v50.14c0,.42-.46.69-.83.48L22.01,30.07c-2.17-1.25-4.93-.51-6.19,1.66L.61,58.09c-1.25,2.17-.51,4.93,1.66,6.18l43.42,25.07c.37.21.37.74,0,.95L2.27,115.36c-2.17,1.25-2.91,4.02-1.66,6.19l15.22,26.36c1.25,2.17,4.02,2.91,6.19,1.66l43.42-25.07c.37-.21.83.05.83.48v50.14c0,2.5,2.03,4.53,4.53,4.53h30.44c2.5,0,4.53-2.03,4.53-4.53v-50.14c0-.42.46-.69.83-.48l43.42,25.07c2.17,1.25,4.93.51,6.19-1.66l15.22-26.36c1.25-2.17.51-4.93-1.66-6.18l-43.41-25.06c-.37-.21-.37-.74,0-.95l43.41-25.07c2.17-1.25,2.91-4.02,1.66-6.18ZM123.63,90.35c-13.7,3.91-21.82,17.98-18.36,31.79h0c.13.54-.52.92-.92.53h0c-10.23-9.91-26.48-9.91-36.71,0h0c-.4.39-1.05.01-.92-.53h0c3.46-13.82-4.66-27.88-18.36-31.79h0c-.53-.15-.53-.91,0-1.06h0c13.7-3.91,21.82-17.98,18.36-31.79h0c-.13-.54.52-.92.92-.53h0c10.23,9.91,26.48,9.91,36.71,0h0c.4-.39,1.05-.01.92.53h0c-3.46,13.82,4.66,27.88,18.36,31.8h0c.53.15.53.91,0,1.06h0Z"/>
  </g>
</svg>