<?xml version="1.0" encoding="UTF-8"?>
<svg id="_图层_2" data-name="图层 2" xmlns="http://www.w3.org/2000/svg" viewBox="0 0 266.73 266.73">
  <defs>
    <style>
      .cls-1 {
        fill: #fff;
      }
    </style>
  </defs>
  <g id="_图层_1-2" data-name="图层 1">
    <g>
      <path class="cls-1" d="M133.37,46.83c1.6,41.62-44.92,88.14-86.54,86.54-20.79.02-33.03-9.66-39.26-21.56C1.18,99.53.8,85.03.03,66.7-.42,48.79,3.67,28.28,16.29,16.29,28.28,3.67,48.79-.42,66.7.03c18.33.76,32.83,1.15,45.11,7.54,11.9,6.23,21.57,18.47,21.56,39.26Z"/>
      <path class="cls-1" d="M266.7,66.7c-.76,18.33-1.15,32.83-7.54,45.11-6.23,11.9-18.47,21.57-39.26,21.56-41.62,1.6-88.14-44.92-86.54-86.54-.02-20.79,9.66-33.03,21.56-39.26C167.2,1.18,181.7.8,200.03.03c17.91-.46,38.42,3.64,50.41,16.25,12.62,11.99,16.71,32.51,16.25,50.41Z"/>
      <path class="cls-1" d="M133.37,219.91c.02,20.79-9.66,33.03-21.56,39.26-12.28,6.39-26.78,6.77-45.11,7.54-17.91.46-38.42-3.64-50.41-16.25C3.67,238.46-.42,217.94.03,200.03c.76-18.33,1.15-32.83,7.54-45.11,6.23-11.9,18.47-21.57,39.26-21.56,41.62-1.6,88.14,44.92,86.54,86.54Z"/>
      <path class="cls-1" d="M266.7,200.03c.46,17.91-3.64,38.42-16.25,50.41-11.99,12.62-32.5,16.71-50.41,16.25-18.33-.76-32.83-1.15-45.11-7.54-11.9-6.23-21.57-18.47-21.56-39.26-1.6-41.62,44.92-88.14,86.54-86.54,20.79-.02,33.03,9.66,39.26,21.56,6.39,12.28,6.77,26.78,7.54,45.11Z"/>
    </g>
  </g>
</svg>