<svg width="120" height="17" viewBox="0 0 120 17" fill="none" xmlns="http://www.w3.org/2000/svg">
<path d="M16.6457 5.40515L15.1687 2.95147C15.046 2.75157 14.78 2.68102 14.5673 2.7986L10.3492 5.13077C10.3123 5.15037 10.2673 5.12685 10.2673 5.08766V0.419399C10.2673 0.188142 10.071 0 9.82957 0H6.87565C6.63427 0 6.43789 0.188142 6.43789 0.419399V5.08374C6.43789 5.12294 6.39288 5.14645 6.35606 5.12686L2.13794 2.7986C1.92928 2.68102 1.65925 2.75157 1.53652 2.95147L0.059559 5.40515C-0.0631798 5.60505 0.0104635 5.86374 0.219119 5.98133L4.43724 8.3135C4.47407 8.3331 4.47407 8.38405 4.43724 8.40365L0.223211 10.7319C0.0145548 10.8495 -0.0590885 11.1043 0.0636503 11.3081L1.54061 13.7618C1.66335 13.9617 1.92928 14.0322 2.14203 13.9146L6.36015 11.5825C6.39697 11.5629 6.44198 11.5864 6.44198 11.6256V16.2899C6.44198 16.5212 6.63836 16.7093 6.87975 16.7093H9.83366C10.075 16.7093 10.2714 16.5212 10.2714 16.2899V11.6256C10.2714 11.5864 10.3164 11.5629 10.3533 11.5825L14.5714 13.9146C14.78 14.0322 15.0501 13.9617 15.1728 13.7618L16.6498 11.3081C16.7725 11.1082 16.6988 10.8495 16.4902 10.7319L12.2721 8.39973C12.2352 8.38013 12.2352 8.32918 12.2721 8.30958L16.4902 5.97741C16.6988 5.85982 16.7725 5.60505 16.6498 5.40123L16.6457 5.40515ZM12.0102 8.40757C10.6806 8.7721 9.89094 10.0812 10.2264 11.3669C10.2387 11.4178 10.1773 11.4531 10.1364 11.4178C9.14223 10.4967 7.56299 10.4967 6.5729 11.4178C6.53608 11.4531 6.47062 11.4178 6.48289 11.3669C6.81838 10.0812 6.02876 8.7721 4.69909 8.40757C4.6459 8.39189 4.6459 8.32134 4.69909 8.30958C6.02876 7.94506 6.81838 6.63591 6.48289 5.35027C6.47062 5.29932 6.53199 5.26404 6.5729 5.29932C7.56708 6.22043 9.14632 6.22043 10.1364 5.29932C10.1732 5.26404 10.2387 5.29932 10.2264 5.35027C9.89094 6.63591 10.6806 7.94506 12.0102 8.30958C12.0634 8.32526 12.0634 8.39581 12.0102 8.40757Z" fill="white"/>
<path d="M58.2229 2.69308C58.9767 2.70361 59.6853 2.82402 60.347 3.05637H60.346C61.0204 3.279 61.6065 3.6293 62.1028 4.10715H62.1018C62.6087 4.57469 63.0038 5.16271 63.2874 5.86984L63.3909 6.1384C63.6168 6.77946 63.7288 7.51904 63.7288 8.35519C63.7288 9.31066 63.5826 10.1447 63.2874 10.8552C63.0036 11.563 62.6083 12.152 62.1009 12.6198C61.667 13.0281 61.1648 13.3467 60.595 13.5759L60.347 13.6687C59.6848 13.9012 58.9762 14.0173 58.222 14.0173C57.4678 14.0173 56.7545 13.901 56.0823 13.6687H56.0813C55.4182 13.4358 54.8333 13.0862 54.3274 12.6198L54.3264 12.6189C53.8298 12.1512 53.4348 11.5624 53.1409 10.8552V10.8542C52.8563 10.144 52.7151 9.31038 52.7151 8.35519C52.7151 7.39989 52.8563 6.56546 53.1409 5.85519L53.2561 5.59152C53.5354 4.99068 53.8916 4.48432 54.3264 4.07492C54.8326 3.59775 55.4183 3.24775 56.0823 3.02512L56.3362 2.94406C56.9337 2.76729 57.5627 2.68389 58.2229 2.69308ZM58.22 4.3132C57.7363 4.31345 57.2676 4.40504 56.8138 4.58762L56.8118 4.58859C56.3587 4.76079 55.9557 5.01924 55.6028 5.36398C55.2508 5.70797 54.9617 6.13355 54.7386 6.64328C54.5271 7.13949 54.4212 7.71022 54.4212 8.35519C54.4212 9.00008 54.5281 9.56997 54.7395 10.0661C54.9521 10.5649 55.2344 10.9858 55.5862 11.3298C55.9502 11.6755 56.3596 11.9391 56.8138 12.1218C57.2682 12.3046 57.7375 12.3962 58.222 12.3962C58.7381 12.3962 59.2232 12.3043 59.677 12.1218L59.8479 12.0495C60.2406 11.8721 60.5864 11.633 60.886 11.3318L60.887 11.3308C61.2391 10.9868 61.5166 10.5659 61.719 10.0671C61.9206 9.57054 62.0227 9.00059 62.0227 8.35519C62.0227 7.71024 61.9158 7.14046 61.7044 6.64426C61.5183 6.20755 61.2748 5.83047 60.9739 5.51242L60.8411 5.37961C60.4882 5.03486 60.0852 4.77642 59.6321 4.60422L59.6302 4.60324C59.1751 4.42018 58.7051 4.32336 58.22 4.3132Z" fill="white" stroke="white" stroke-width="0.185659"/>
<path d="M41.988 2.80197L42.0114 2.85861L45.7663 11.7199L45.7673 11.7238C45.7756 11.7462 45.7809 11.7697 45.7878 11.7932C45.7954 11.7695 45.8029 11.7463 45.8112 11.7238L45.8122 11.7199L49.5661 2.85861L49.5905 2.80197H51.3737V13.9084H49.6677V7.12228C49.6677 6.8671 49.6834 6.59213 49.7106 6.29709C49.6182 6.5752 49.5268 6.83254 49.4274 7.06564L46.6354 13.8508L46.612 13.9084H44.9665L44.9431 13.8508L42.1511 7.06564L41.9675 6.59689C41.9284 6.48928 41.8921 6.37715 41.8542 6.26193C41.8908 6.57006 41.9108 6.85678 41.9108 7.12228V13.9084H40.2048V2.80197H41.988Z" fill="white" stroke="white" stroke-width="0.185659"/>
<path d="M38.4922 2.80197V4.42307H31.8525V7.77853H38.2744V9.24338H31.8525V12.2873H38.4922V13.9084H30.1465V2.80197H38.4922Z" fill="white" stroke="white" stroke-width="0.185659"/>
<path d="M22.7242 2.80197V11.7873C22.7241 11.9779 22.6786 12.1713 22.5923 12.3674C22.5791 12.3997 22.5642 12.4314 22.5493 12.4621L22.6421 12.4192C22.8374 12.3322 23.0303 12.2874 23.2202 12.2873H28.8052V13.9084H21.0181V2.80197H22.7242Z" fill="white" stroke="white" stroke-width="0.185659"/>
<path d="M114.124 2.74007C114.877 2.75054 115.586 2.87033 116.248 3.10139H116.247C116.92 3.32251 117.506 3.67005 118.002 4.14436C118.509 4.60949 118.904 5.19543 119.188 5.89925L119.292 6.16585C119.518 6.8035 119.63 7.53923 119.63 8.37093C119.629 9.32112 119.483 10.1506 119.188 10.8573C118.904 11.5612 118.509 12.1469 118.002 12.6121C117.506 13.0762 116.92 13.4227 116.247 13.6541L116.248 13.6551C115.586 13.8863 114.877 14.0018 114.123 14.0018C113.369 14.0018 112.655 13.8861 111.983 13.6551H111.982C111.319 13.4235 110.734 13.0759 110.228 12.6121L110.227 12.6112C109.731 12.1461 109.336 11.5606 109.042 10.8573V10.8563C108.757 10.1499 108.616 9.32085 108.616 8.37093C108.616 7.42088 108.757 6.591 109.042 5.8846L109.157 5.62288C109.436 5.02513 109.792 4.52132 110.227 4.11409C110.733 3.63956 111.319 3.29153 111.983 3.07014L112.237 2.98909C112.834 2.81332 113.464 2.73093 114.124 2.74007ZM114.121 4.35237C113.637 4.35262 113.168 4.4433 112.714 4.62483L112.713 4.62581C112.259 4.79703 111.856 5.05356 111.504 5.39632C111.151 5.73835 110.862 6.16195 110.639 6.66878L110.64 6.66975C110.429 7.16306 110.322 7.7297 110.322 8.37093C110.322 9.01207 110.429 9.57885 110.64 10.0721C110.853 10.5679 111.135 10.986 111.487 11.328C111.851 11.6717 112.26 11.9343 112.714 12.116C113.169 12.2979 113.638 12.3885 114.123 12.3885C114.639 12.3885 115.124 12.2976 115.578 12.116L115.75 12.0438C116.142 11.8673 116.488 11.6293 116.788 11.3299L116.789 11.3289C117.141 10.987 117.418 10.5688 117.621 10.0731C117.822 9.57945 117.923 9.01253 117.923 8.37093C117.923 7.7297 117.817 7.16306 117.605 6.66975C117.393 6.17383 117.105 5.75514 116.743 5.41292L116.742 5.41194C116.389 5.06917 115.986 4.81266 115.533 4.64143L115.531 4.64046C115.076 4.45844 114.606 4.36248 114.121 4.35237Z" fill="white" stroke="white" stroke-width="0.185659"/>
<path d="M107.701 2.84834V13.8933H105.995V2.84834H107.701Z" fill="white" stroke="white" stroke-width="0.185659"/>
<path d="M99.4646 2.84834C100.228 2.84835 100.952 2.95812 101.634 3.17841C102.317 3.39932 102.913 3.74181 103.42 4.20576L103.608 4.38154C104.037 4.80592 104.381 5.32288 104.638 5.93037C104.934 6.62672 105.08 7.44102 105.08 8.3708C105.08 9.30061 104.934 10.1149 104.638 10.8112C104.344 11.505 103.938 12.0856 103.421 12.5505H103.42C102.913 13.0043 102.317 13.3423 101.634 13.5632C100.952 13.7835 100.228 13.8932 99.4646 13.8933H95.0125V2.84834H99.4646ZM96.4812 4.46162C96.5244 4.48713 96.564 4.51612 96.5984 4.55048C96.679 4.63108 96.7185 4.73327 96.7185 4.84931V12.28H99.5417C99.9976 12.28 100.454 12.2145 100.911 12.0827L101.079 12.0261C101.465 11.884 101.817 11.6763 102.135 11.403L102.135 11.402C102.506 11.0915 102.803 10.6893 103.025 10.194L103.026 10.1931C103.257 9.70188 103.374 9.09548 103.374 8.3708C103.374 7.66671 103.262 7.06974 103.041 6.57783C102.818 6.08199 102.525 5.68039 102.165 5.36982C101.802 5.05775 101.39 4.83121 100.927 4.69013L100.925 4.68916C100.468 4.53708 100.007 4.46162 99.5417 4.46162H96.4812Z" fill="white" stroke="white" stroke-width="0.185659"/>
<path d="M85.6748 2.84834V9.10029C85.6748 9.6183 85.7507 10.0828 85.9013 10.4948L86.0263 10.7858C86.1621 11.0669 86.3314 11.3161 86.5341 11.5339H86.5332C86.8127 11.8129 87.148 12.027 87.539 12.1774H87.5381C87.94 12.3282 88.3836 12.4039 88.8701 12.404C89.8541 12.404 90.6196 12.1156 91.1777 11.5476C91.7352 10.9697 92.0194 10.1584 92.0195 9.10029V2.84834H93.7256V9.08466C93.7255 9.92133 93.5954 10.653 93.331 11.277H93.33C93.0667 11.8879 92.7082 12.4012 92.2529 12.8142C91.8643 13.1658 91.4188 13.44 90.9179 13.6374L90.7002 13.7175C90.1212 13.9175 89.5107 14.0173 88.8701 14.0173C88.1997 14.0172 87.5647 13.9232 86.9658 13.7341L86.9638 13.7331C86.3733 13.5327 85.8553 13.2316 85.4111 12.8298C84.9656 12.4267 84.6117 11.9135 84.3486 11.2927L84.3476 11.2907C84.094 10.667 83.9688 9.9309 83.9687 9.08466V2.84834H85.6748Z" fill="white" stroke="white" stroke-width="0.185659"/>
<path d="M83.4602 2.84834V4.46162H79.9856C79.8157 4.46162 79.6423 4.42112 79.467 4.34443L79.4651 4.34345C79.4399 4.33171 79.416 4.31816 79.3918 4.30537C79.4061 4.33347 79.4208 4.36175 79.4338 4.3913L79.4846 4.5163C79.5285 4.64171 79.551 4.76869 79.551 4.89619V13.8933H77.8449V4.46162H73.9358V2.84834H83.4602Z" fill="white" stroke="white" stroke-width="0.185659"/>
<path d="M69.4698 2.69309C70.0344 2.70358 70.5586 2.77205 71.0421 2.89817L71.4015 3.00462C71.749 3.12304 72.0624 3.27693 72.3409 3.46751C72.7244 3.71248 73.0346 4.02229 73.2697 4.39622C73.506 4.77229 73.6442 5.21113 73.6866 5.70969L73.6945 5.79758L73.6066 5.81028L72.1486 6.01145L72.0529 6.02512L72.0431 5.92844C71.9937 5.4155 71.7737 5.02129 71.3829 4.73801C70.9932 4.45565 70.3609 4.3064 69.4679 4.30637C68.588 4.30637 67.9152 4.46509 67.4396 4.77219H67.4386C66.9795 5.06528 66.7531 5.48056 66.7531 6.02805C66.7531 6.29244 66.8459 6.49234 67.0284 6.6384C67.2344 6.78457 67.5022 6.90788 67.8341 7.00852C68.181 7.10024 68.5696 7.17749 69.0001 7.23899H68.9991C69.4444 7.30111 69.8952 7.36867 70.3507 7.44114L70.6993 7.49973C71.0446 7.56216 71.3812 7.63651 71.7091 7.72239L72.0392 7.81907C72.3587 7.92558 72.65 8.06172 72.9122 8.22825L73.045 8.31223C73.3467 8.51336 73.5923 8.76388 73.7804 9.06419L73.8615 9.19993C74.0366 9.52651 74.1212 9.92395 74.1212 10.3874C74.1212 10.771 74.0521 11.174 73.9152 11.5954L73.9142 11.5945C73.7848 12.0142 73.5389 12.4043 73.1788 12.7644C72.8257 13.1175 72.3428 13.4087 71.7345 13.6394H71.7335C71.1301 13.8617 70.3579 13.9704 69.421 13.9704C68.5569 13.9704 67.8379 13.8766 67.2667 13.6863C66.6998 13.4973 66.2378 13.2493 65.8849 12.9392L65.8829 12.9372C65.5428 12.6183 65.296 12.2603 65.1456 11.863C64.9979 11.4725 64.9078 11.0756 64.8761 10.6736L64.8693 10.5857L64.9572 10.5749L66.4308 10.3884L66.5275 10.3767L66.5353 10.4724C66.5846 11.0646 66.8538 11.5199 67.3468 11.8454H67.3458C67.8535 12.174 68.5378 12.3468 69.4054 12.3572C70.379 12.3572 71.119 12.188 71.6359 11.8601H71.6368C72.1568 11.5363 72.4151 11.0649 72.4152 10.4343C72.4152 10.1371 72.3162 9.91014 72.1222 9.74387L72.1202 9.7429C71.9258 9.56789 71.6595 9.42321 71.3165 9.31223L71.3126 9.31126C70.9788 9.18989 70.592 9.09818 70.1525 9.03684L70.1505 9.03587C69.7165 8.96353 69.2669 8.89141 68.8019 8.81907H68.7999C68.3434 8.73607 67.8916 8.64256 67.4454 8.5388L67.4425 8.53782C67.0017 8.42232 66.6013 8.2648 66.2423 8.06419L66.2413 8.06321C65.8888 7.86026 65.5994 7.59782 65.3741 7.2761L65.3722 7.27317C65.1535 6.93425 65.047 6.51724 65.047 6.02805C65.047 5.46769 65.1582 4.97657 65.3839 4.55735V4.55637C65.6185 4.12983 65.939 3.77774 66.3439 3.50071C66.747 3.22489 67.2176 3.01929 67.754 2.88255C68.2901 2.74591 68.8618 2.68266 69.4689 2.69309H69.4698Z" fill="white" stroke="white" stroke-width="0.185659"/>
</svg>
