<?xml version="1.0" encoding="UTF-8"?>
<svg id="_图层_2" data-name="图层 2" xmlns="http://www.w3.org/2000/svg" viewBox="0 0 287.7 42.64">
  <defs>
    <style>
      .cls-1 {
        fill: #fff;
      }
    </style>
  </defs>
  <g id="_图层_1-2" data-name="图层 1">
    <g>
      <g>
        <path class="cls-1" d="M55.89,36.49V6.37h4.22v24.53c0,.49-.11.98-.32,1.48s-.5.92-.84,1.27l.04.04c.34-.34.77-.62,1.27-.84.5-.22,1-.32,1.48-.32h15.23v3.96h-21.09Z"/>
        <path class="cls-1" d="M89.14,36.75c-1.58,0-3.08-.22-4.52-.67-1.44-.44-2.69-1.13-3.77-2.04-1.08-.92-1.93-2.07-2.56-3.44-.63-1.38-.95-3-.95-4.86s.32-3.49.95-4.86c.63-1.38,1.48-2.52,2.56-3.44,1.08-.92,2.33-1.6,3.77-2.04,1.43-.44,2.94-.67,4.52-.67s3.06.23,4.45.69c1.39.46,2.6,1.14,3.64,2.04s1.85,2.04,2.45,3.42.9,3,.9,4.86v.62c0,.1-.03.29-.09.58h-18.76c.32,2.15,1.15,3.76,2.5,4.82,1.35,1.06,3.01,1.58,4.99,1.55,1.66-.03,3.12-.34,4.37-.95,1.25-.6,2.17-1.71,2.78-3.31l3.87.52c-.4,1.29-.97,2.4-1.7,3.31-.73.92-1.59,1.66-2.56,2.22-.98.56-2.04.98-3.21,1.25-1.16.27-2.37.41-3.64.41ZM89.23,18.03c-.95,0-1.89.18-2.84.54-.95.36-1.78.9-2.5,1.64-.72.73-1.28,1.66-1.7,2.78-.42,1.12-.57,2.44-.45,3.96.17-.57.37-1.03.58-1.38.22-.34.47-.6.77-.78.3-.17.65-.29,1.03-.34.39-.06.84-.09,1.36-.09h11.1c-.32-2.21-1.13-3.81-2.43-4.8-1.31-.99-2.95-1.5-4.93-1.53Z"/>
        <path class="cls-1" d="M103.07,14.97h4.22v3.74c0,.49-.04,1.03-.11,1.61-.07.59-.17,1.13-.28,1.61h.09c.11-.49.25-1.02.41-1.59.16-.57.35-1.08.58-1.51.75-1.46,1.69-2.53,2.82-3.21,1.13-.67,2.35-1.01,3.64-1.01.97,0,1.81.13,2.52.39.7.26,1.31.6,1.81,1.01.5.42.91.9,1.23,1.44.31.55.56,1.1.73,1.68.14.49.22,1.03.24,1.61.01.59,0,1.13-.06,1.61h.09c.09-1,.32-1.97.69-2.91.37-.93.87-1.76,1.48-2.47.62-.72,1.36-1.29,2.24-1.72.88-.43,1.87-.65,2.99-.65,2.47,0,4.23.87,5.29,2.6,1.06,1.74,1.59,4.15,1.59,7.25v12.01h-4.22v-11.1c0-2.12-.35-3.74-1.05-4.84-.7-1.1-1.7-1.66-2.99-1.66-.55,0-1.15.13-1.81.39-.66.26-1.28.74-1.85,1.44-.57.7-1.06,1.66-1.46,2.88s-.6,2.79-.6,4.71v8.18h-4.22v-11.1c0-2.24-.32-3.88-.97-4.93-.65-1.05-1.61-1.57-2.9-1.57-.49,0-1.07.13-1.74.39-.67.26-1.32.74-1.94,1.44-.62.7-1.14,1.66-1.57,2.88-.43,1.22-.65,2.79-.65,4.71v8.18h-4.22V14.97Z"/>
        <path class="cls-1" d="M149.54,36.75c-1.58,0-3.09-.22-4.54-.67s-2.71-1.13-3.79-2.04c-1.08-.92-1.94-2.07-2.58-3.44s-.97-3-.97-4.86.32-3.49.97-4.86,1.51-2.52,2.58-3.44c1.08-.92,2.34-1.6,3.79-2.04,1.45-.44,2.96-.67,4.54-.67s3.13.23,4.56.69,2.7,1.14,3.79,2.04c1.09.9,1.96,2.04,2.6,3.42s.97,3,.97,4.86-.32,3.49-.97,4.86-1.51,2.53-2.6,3.44c-1.09.92-2.35,1.6-3.79,2.04s-2.96.67-4.56.67ZM149.54,18.29c-.98,0-1.93.16-2.86.47-.93.32-1.75.79-2.45,1.42-.7.63-1.27,1.41-1.7,2.35-.43.93-.65,2-.65,3.21s.2,2.36.6,3.29c.4.93.95,1.7,1.64,2.3s1.5,1.05,2.43,1.36c.93.3,1.93.45,2.99.45s2.02-.15,2.95-.45c.93-.3,1.75-.76,2.45-1.38.7-.62,1.26-1.39,1.68-2.32s.62-2.02.62-3.25-.21-2.27-.62-3.21c-.42-.93-.98-1.71-1.7-2.32-.72-.62-1.54-1.09-2.45-1.42-.92-.33-1.89-.5-2.93-.5Z"/>
        <path class="cls-1" d="M170.81,27.28c.14,1.72.94,3.06,2.39,4,1.45.95,3.39,1.44,5.83,1.46,2.72,0,4.84-.47,6.35-1.42,1.51-.95,2.26-2.34,2.26-4.17,0-.89-.29-1.59-.88-2.11-.59-.52-1.36-.94-2.32-1.27-.96-.33-2.05-.59-3.27-.77-1.22-.19-2.47-.39-3.74-.6-1.28-.22-2.52-.47-3.74-.77-1.22-.3-2.31-.72-3.27-1.27-.96-.54-1.74-1.25-2.32-2.13-.59-.87-.88-1.97-.88-3.29,0-1.52.31-2.85.92-3.98.62-1.13,1.47-2.07,2.56-2.82,1.09-.75,2.37-1.31,3.83-1.68,1.46-.37,3.03-.54,4.69-.52,1.55.03,2.99.21,4.33.56s2.51.85,3.53,1.53c1.02.67,1.84,1.51,2.47,2.52.63,1,1,2.18,1.12,3.53l-4.04.56c-.14-1.49-.79-2.65-1.94-3.49s-2.97-1.25-5.46-1.25-4.38.44-5.75,1.31c-1.36.88-2.04,2.12-2.04,3.72,0,.8.29,1.43.88,1.87.59.44,1.36.8,2.32,1.08.96.27,2.05.5,3.27.67,1.22.17,2.47.36,3.74.56,1.28.2,2.52.46,3.74.77,1.22.32,2.31.77,3.27,1.36.96.59,1.74,1.34,2.32,2.26.59.92.88,2.09.88,3.53,0,1.03-.18,2.12-.54,3.25-.36,1.13-1.02,2.18-1.98,3.14s-2.27,1.75-3.92,2.37c-1.65.62-3.76.93-6.35.93-2.38,0-4.35-.26-5.9-.78-1.55-.52-2.79-1.2-3.72-2.04-.93-.85-1.6-1.8-2-2.86-.4-1.06-.65-2.14-.73-3.23l4.09-.52Z"/>
        <path class="cls-1" d="M192.18,18.76v-3.96h.82c.49,0,1-.2,1.53-.6.53-.4,1.01-.92,1.44-1.55.43-.63.79-1.33,1.08-2.11.29-.77.43-1.53.43-2.28l4.26-.04c-.06,1.2-.34,2.35-.86,3.42s-1.28,1.94-2.28,2.6c-.37.23-.83.39-1.36.5-.53.1-1.01.19-1.44.28v.09c.43-.09.91-.16,1.44-.22.53-.06,1.01-.09,1.44-.09h7.62v3.96h-5.46v11.45c0,.95.23,1.57.69,1.87.46.3,1.02.45,1.68.45h4.13v3.96h-3.92c-1.41,0-2.55-.14-3.44-.41-.89-.27-1.58-.7-2.07-1.27-.49-.57-.83-1.31-1.01-2.22-.19-.9-.28-1.97-.28-3.21v-10.63h-4.43Z"/>
        <path class="cls-1" d="M216.84,36.75c-1.55,0-2.84-.3-3.87-.9s-1.85-1.41-2.45-2.41-1.03-2.17-1.27-3.49c-.24-1.32-.37-2.68-.37-4.09v-10.97h4.22v10.97c0,2.3.44,3.97,1.31,5.04s2.19,1.59,3.94,1.59c.46,0,1.03-.12,1.72-.37s1.35-.71,1.98-1.4c.63-.69,1.17-1.66,1.61-2.9s.67-2.88.67-4.88v-8.05h4.22v21.52h-4.22v-4.13c0-.46.04-.95.11-1.46.07-.52.15-.99.24-1.42l-.09-.04c-.2,1-.5,1.96-.9,2.86-.4.9-.92,1.69-1.55,2.37-.63.67-1.38,1.21-2.26,1.59-.88.39-1.89.58-3.03.58Z"/>
        <path class="cls-1" d="M230.44,25.73c0-3.73.9-6.49,2.71-8.28,1.81-1.79,4.32-2.7,7.53-2.73.72,0,1.46.08,2.24.24.78.16,1.54.39,2.28.69.75.3,1.46.66,2.13,1.08.67.42,1.25.88,1.74,1.4.34.34.64.79.88,1.33.24.55.44,1.05.58,1.51h.09c-.14-.49-.27-1.02-.39-1.59-.12-.57-.17-1.1-.17-1.59V6.37h4.22v30.12h-4.22v-2.62c0-.49.06-1.02.17-1.59.11-.57.24-1.09.39-1.55l-.09-.04c-.14.46-.34.96-.58,1.51-.24.54-.54.99-.88,1.33-.52.52-1.1.97-1.76,1.36-.66.39-1.36.72-2.11,1.01-.75.29-1.51.5-2.28.65-.77.14-1.52.22-2.24.22-3.21,0-5.72-.9-7.53-2.71-1.81-1.81-2.71-4.58-2.71-8.31ZM242.06,18.2c-2.64.03-4.53.65-5.68,1.87-1.15,1.22-1.72,3.11-1.72,5.66s.58,4.43,1.74,5.62c1.16,1.19,3.05,1.79,5.66,1.79.95,0,1.9-.17,2.86-.5.96-.33,1.82-.82,2.58-1.46s1.38-1.43,1.85-2.34c.47-.92.71-1.95.71-3.1s-.24-2.23-.71-3.16c-.47-.93-1.09-1.72-1.85-2.37s-1.62-1.14-2.58-1.48-1.91-.52-2.86-.52Z"/>
        <path class="cls-1" d="M257.32,10.02v-3.66h4.35v3.66h-4.35ZM257.4,36.49h4.17V14.97h-4.17v21.52Z"/>
        <path class="cls-1" d="M275.78,36.75c-1.58,0-3.09-.22-4.54-.67-1.45-.44-2.71-1.13-3.79-2.04-1.08-.92-1.94-2.07-2.58-3.44s-.97-3-.97-4.86.32-3.49.97-4.86,1.51-2.52,2.58-3.44c1.08-.92,2.34-1.6,3.79-2.04,1.45-.44,2.96-.67,4.54-.67s3.13.23,4.56.69c1.43.46,2.7,1.14,3.79,2.04s1.96,2.04,2.6,3.42c.65,1.38.97,3,.97,4.86s-.32,3.49-.97,4.86c-.64,1.38-1.51,2.53-2.6,3.44s-2.35,1.6-3.79,2.04c-1.44.44-2.96.67-4.56.67ZM275.78,18.29c-.97,0-1.93.16-2.86.47-.93.32-1.75.79-2.45,1.42-.7.63-1.27,1.41-1.7,2.35-.43.93-.65,2-.65,3.21s.2,2.36.6,3.29c.4.93.95,1.7,1.63,2.3.69.6,1.5,1.05,2.43,1.36.93.3,1.93.45,2.99.45s2.02-.15,2.95-.45c.93-.3,1.75-.76,2.45-1.38.7-.62,1.26-1.39,1.68-2.32s.62-2.02.62-3.25-.21-2.27-.62-3.21c-.42-.93-.98-1.71-1.7-2.32-.72-.62-1.54-1.09-2.45-1.42-.92-.33-1.89-.5-2.93-.5Z"/>
      </g>
      <path class="cls-1" d="M40.68,13.79l-3.61-6.26c-.3-.51-.95-.69-1.47-.39l-10.31,5.95c-.09.05-.2-.01-.2-.11V1.07c0-.59-.48-1.07-1.07-1.07h-7.22c-.59,0-1.07.48-1.07,1.07v11.9c0,.1-.11.16-.2.11L5.22,7.14c-.51-.3-1.17-.12-1.47.39L.14,13.79c-.3.51-.12,1.17.39,1.47l10.31,5.95c.09.05.09.18,0,.23L.54,27.38c-.51.3-.69.95-.39,1.47l3.61,6.26c.3.51.95.69,1.47.39l10.31-5.95c.09-.05.2.01.2.11v11.9c0,.59.48,1.07,1.07,1.07h7.22c.59,0,1.07-.48,1.07-1.07v-11.9c0-.1.11-.16.2-.11l10.31,5.95c.51.3,1.17.12,1.47-.39l3.61-6.26c.3-.51.12-1.17-.39-1.47l-10.31-5.95c-.09-.05-.09-.18,0-.23l10.31-5.95c.51-.3.69-.95.39-1.47ZM29.35,21.45c-3.25.93-5.18,4.27-4.36,7.55h0c.03.13-.12.22-.22.13h0c-2.43-2.35-6.29-2.35-8.71,0h0c-.09.09-.25,0-.22-.13h0c.82-3.28-1.11-6.62-4.36-7.55h0c-.13-.04-.13-.22,0-.25h0c3.25-.93,5.18-4.27,4.36-7.55h0c-.03-.13.12-.22.22-.13h0c2.43,2.35,6.29,2.35,8.71,0h0c.09-.09.25,0,.22.13h0c-.82,3.28,1.11,6.62,4.36,7.55h0c.13.04.13.22,0,.25h0Z"/>
    </g>
  </g>
</svg>