<svg width="608" height="590" viewBox="0 0 608 590" fill="none" xmlns="http://www.w3.org/2000/svg">
<path d="M352.718 0.214159C354.344 0.105159 355.973 0.0381629 357.603 0.0121629C381.195 -0.320837 404.211 6.15515 421.324 22.9892C437.604 39.0062 449.68 68.5482 449.98 91.3302C484.054 109.005 516.152 132.384 540.736 162.142C589.425 221.076 613.909 291.18 606.525 367.881C601.93 415.609 584.331 461.617 552.092 497.63C542.86 507.942 532.667 516.943 521.994 525.737C509.445 536.077 495.453 544.631 481.052 552.092C426.44 580.383 365.186 589.756 304.22 589.55C289.09 589.499 274.076 589.124 259.003 587.662C237.271 584.691 214.598 581.521 193.326 576.087C185.73 574.147 178.53 571.546 171.141 568.972C164.885 566.792 158.481 564.884 152.34 562.398C128.226 552.635 99.9086 536.286 80.1856 519.133C30.3906 475.824 4.94165 423.467 0.470645 357.702C-0.682355 340.739 0.363648 323.814 2.72965 306.99C9.89765 254.198 32.6676 204.749 68.1206 164.982C91.4856 138.25 121.171 115.759 152.69 99.5382C161.949 94.7732 171.763 90.7662 181.387 86.7872C186.91 84.5592 192.528 82.5732 198.225 80.8352C204.566 78.9452 211.512 77.5982 217.292 74.2842C223.297 70.8402 233.024 58.0541 239.133 52.6521C272.05 23.5451 308.133 3.23516 352.718 0.214159Z" fill="#54C5FE"/>
<path d="M171.019 307.066C173.635 307.108 176.368 307.618 178.471 309.272C180.275 310.69 181.347 312.759 181.578 315.033C182.329 322.431 176.192 325.594 172.292 330.541C172.194 330.665 172.1 330.791 172.004 330.916C175.887 348.704 181.056 364.464 191.77 379.511C211.296 406.933 241.484 423.682 274.392 429.217C306.383 434.733 339.299 429.11 367.645 413.286C372.82 410.338 377.701 406.703 382.55 403.249C406.115 386.463 422.11 359.623 426.899 331.249C423.226 328.833 418.967 325.47 417.716 321.052C416.846 317.98 417.905 314.714 419.458 312.033C420.665 309.948 422.388 308.487 424.753 307.912C435.586 305.279 441.662 314.959 450.243 318.517C454.68 320.356 459.468 320.426 463.643 323.118C465.464 324.292 466.988 325.818 467.299 328.051C467.629 330.418 466.118 332.978 464.754 334.773C461.766 338.708 457.435 340.185 452.691 340.745C451.691 340.743 450.708 340.813 449.712 340.888C448.523 342.221 444.739 360.393 443.784 363.334C439.133 377.651 431.435 391.986 422.043 403.795C396.171 436.322 357.212 455.388 316.268 459.811C275.444 464.22 231.903 453.819 199.639 427.869C172.613 406.13 154.621 375.33 150.877 340.696C147.034 340.736 142.237 341.061 138.742 339.238C136.386 338.009 134.797 335.713 134.152 333.162C133.563 330.835 134.109 328.717 135.418 326.745C136.092 325.73 136.952 324.931 137.955 324.246C141.572 321.777 145.872 320.234 149.683 318.062C154.536 315.298 158.942 311.86 164.004 309.431C166.278 308.34 168.574 307.644 171.019 307.066Z" fill="black"/>
<path d="M224.978 233.711C236.936 232.884 252.33 235.311 263.154 240.695C268.4 243.304 270.861 246.446 272.633 251.883C271.36 257.552 269.42 259.914 264.596 262.972C258.932 263.221 253.065 262.274 247.466 261.471C236.872 260.148 210.72 260.624 203.156 255.571C200.673 253.912 198.795 251.379 198.319 248.394C197.896 245.737 198.579 243.309 200.271 241.221C205.507 234.76 217.332 234.425 224.978 233.711Z" fill="black"/>
<path d="M363.536 233.689C371.765 232.494 386.185 233.982 393.209 238.632C395.39 240.076 397.163 242.146 397.637 244.777C398.146 247.597 396.992 250.8 395.269 253.014C389.75 260.105 365.924 259.785 356.802 260.811C349.448 261.941 339.29 263.273 331.949 263.015C328.899 260.983 325.681 258.819 324.993 254.947C324.449 251.885 325.297 248.693 327.116 246.199C334.079 236.648 352.745 235.094 363.536 233.689Z" fill="black"/>
</svg>
